<?xml version="1.0" encoding="UTF-8" standalone="no"?>
<svg
   xmlns:dc="http://purl.org/dc/elements/1.1/"
   xmlns:cc="http://creativecommons.org/ns#"
   xmlns:rdf="http://www.w3.org/1999/02/22-rdf-syntax-ns#"
   xmlns:svg="http://www.w3.org/2000/svg"
   xmlns="http://www.w3.org/2000/svg"
   version="1.1"
   id="svg3459"
   viewBox="0 0 797.2441 744.09448"
   height="210mm"
   width="225mm">
  <defs
     id="defs3461" />
  <metadata
     id="metadata3464">
    <rdf:RDF>
      <cc:Work
         rdf:about="">
        <dc:format>image/svg+xml</dc:format>
        <dc:type
           rdf:resource="http://purl.org/dc/dcmitype/StillImage" />
        <dc:title></dc:title>
      </cc:Work>
    </rdf:RDF>
  </metadata>
  <g
     transform="translate(0,-308.26772)"
     id="layer1">
    <path
       id="path3396"
       d="m 777.92747,802.29958 c -6.09214,-9.65954 -12.18426,-18.71536 -13.555,-20.17437 -1.67533,-1.81117 -38.48195,-27.67051 -115.44588,-81.20043 -62.13974,-43.21632 -113.0598,-78.6346 -113.16134,-78.73524 -0.15229,-0.15092 3.35068,-9.91107 5.33062,-14.69052 0.65998,-1.55961 0.76151,-1.60993 1.52303,-0.90559 1.01536,1.00621 1.97994,0.40249 2.48762,-1.5596 l 0.30461,-1.30807 0.86305,1.71055 c 0.50767,0.95589 1.16766,1.66023 1.52303,1.60991 0.35538,-0.1006 0.60921,0.10061 0.60921,0.35217 0,0.30187 0.20308,0.50311 0.45691,0.50311 0.86305,0 4.31526,-14.79117 5.9906,-25.90968 1.26919,-8.50239 1.26919,-31.99719 0,-40.90208 -1.01536,-7.14403 -1.92917,-9.65953 -4.01064,-11.42038 l -1.52304,-1.25774 -19.95174,0 -19.95173,0 -1.62457,1.30805 c -2.08147,1.76086 -2.84299,3.77325 -3.80757,10.16264 -1.1169,7.34527 -1.57381,27.92206 -0.81229,36.17292 0.60921,6.54031 2.48761,17.55821 3.90911,22.9917 0.40615,1.60992 0.65999,3.01859 0.50768,3.16953 -0.10149,0.15093 -15.8903,-10.66573 -35.02976,-23.9979 l -34.77591,-24.19913 -0.20308,-71.03779 c -0.20306,-76.37065 -0.15229,-74.66011 -2.94451,-93.67732 -4.51834,-30.68913 -14.31652,-56.34726 -27.5669,-72.04399 -5.5337,-6.59062 -8.63052,-6.79186 -13.60577,-1.05651 -15.48416,18.06131 -25.53618,46.58709 -29.95297,85.12461 -1.06612,9.35766 -1.11689,11.52099 -1.2692,81.0998 l -0.20307,71.54089 -34.82664,24.19913 c -19.13952,13.33217 -34.87753,24.14884 -34.97899,24.04821 -0.15232,-0.10061 0.20301,-2.11302 0.76151,-4.42728 1.52301,-6.43969 2.99524,-15.59611 3.65529,-22.79046 0.71073,-7.94899 0.30455,-26.96618 -0.7616,-34.563 -0.91382,-6.33907 -1.9291,-9.05581 -3.95984,-10.76636 l -1.523,-1.25774 -19.9518,0 -19.95172,0 -1.523,1.25774 c -3.29989,2.71675 -4.61989,10.01171 -5.02599,27.5196 -0.40618,16.75326 0.81227,27.92208 4.67057,43.51819 1.7261,6.99311 2.08152,7.84838 2.74148,6.74156 0.25385,-0.35217 0.60926,-0.55341 0.86304,-0.50311 0.25387,0.10061 0.81228,-0.60371 1.26924,-1.5596 0.81227,-1.71054 0.81227,-1.71054 1.21837,-0.45281 0.66005,2.16335 1.26924,2.61614 2.33537,1.66024 1.06615,-0.95589 0.60919,-1.91178 4.56912,8.80426 1.42147,3.67263 2.48761,6.74155 2.38606,6.84217 -0.10148,0.0504 -50.8693,35.36796 -112.85673,78.43338 -79.248512,55.13981 -113.516832,79.23833 -115.496732,81.25073 -1.8276,1.91174 -6.5491,8.85457 -13.8596,20.37561 l -11.0166,17.45758 0,6.74151 c 0,3.72291 0.2031,6.84217 0.4061,6.99308 0.2031,0.10061 6.1937,-4.62853 13.3012,-10.6154 14.0626,-11.72228 17.3118,-14.23774 22.33784,-16.90419 2.3861,-1.30803 77.166962,-33.6574 100.367872,-43.4176 1.62456,-0.70429 1.67533,-0.65396 1.92919,0.65405 0.71073,3.67266 1.37069,6.03721 2.38607,8.30119 0.86304,1.96207 1.26923,2.41488 2.13228,2.31423 1.47223,-0.20125 3.85838,-6.89243 4.2137,-12.07443 0.25387,-3.52166 0.40619,-3.87381 1.62456,-4.4272 10.61047,-4.77953 45.84332,-19.62098 46.19864,-19.41975 0.20309,0.15091 0.5585,1.35836 0.71082,2.71679 0.45687,3.77324 2.48761,8.35144 3.75676,8.55268 0.81227,0.10073 1.32,-0.25158 1.87842,-1.30802 1.32,-2.51555 2.843,-8.754 2.843,-11.67195 l 0,-2.76703 20.3579,-8.65337 20.30713,-8.70364 13.09807,0 13.14886,0 0.55841,3.77326 c 0.30464,2.06271 1.16768,5.23224 1.87842,7.0434 1.67532,4.12547 2.79224,4.37695 4.26448,1.00619 1.37069,-3.11921 2.53838,-7.79804 2.53838,-10.01169 l 0,-1.81116 35.5374,0 35.48669,0 0.20307,78.88615 c 0.15231,70.58506 0.25385,79.64086 1.01536,86.38238 1.77687,15.14336 4.4168,31.99722 7.25979,45.73181 0.65998,3.27017 1.21842,7.14408 1.21842,8.55277 0,5.5844 1.77688,3.77322 -48.48322,48.2976 -34.1667,30.18608 -46.24941,41.20398 -47.06168,42.71328 -1.26924,2.4652 -6.09214,21.0799 -5.5845,21.5327 0.2031,0.1509 26.60235,-9.2068 58.63677,-20.778 32.08524,-11.6216 58.38294,-21.0296 58.48448,-20.929 0.10148,0.1006 2.03071,7.6973 4.26449,16.9042 2.23378,9.2067 4.21373,16.9544 4.36602,17.206 0.40616,0.654 6.70136,0.654 7.10749,0.05 0.15231,-0.2516 2.08148,-7.9993 4.2645,-17.1558 2.23378,-9.1564 4.11219,-16.8035 4.26448,-16.9042 0.15231,-0.1509 26.50078,9.2068 58.53524,20.8284 32.08522,11.6217 58.48446,21.0296 58.63676,20.929 0.55846,-0.3019 -4.61987,-19.9228 -5.78753,-21.9855 -0.71075,-1.2578 -17.3118,-16.3005 -47.06171,-42.56232 -50.10778,-44.37346 -48.22937,-42.51196 -48.22937,-47.99578 0,-1.40869 0.91382,-7.34524 2.03071,-13.13097 3.60451,-18.81593 5.99059,-35.9717 7.10748,-51.36654 0.30462,-4.27638 0.50769,-36.02204 0.50769,-81.0998 l 0,-74.1067 35.53744,0 35.53742,0 0,2.21363 c 0,2.4652 2.08148,9.55889 3.24913,11.11857 0.60921,0.80496 0.96459,0.90553 1.67534,0.45273 1.2692,-0.75464 3.65529,-7.94897 3.70604,-11.1185 l 0,-2.66643 13.60577,0.0504 13.55499,0 20.05327,8.65334 20.05326,8.65337 0.35538,4.02471 c 0.4569,5.88631 2.69069,11.82295 4.41679,11.82295 1.37074,0 4.11219,-6.7416 4.11219,-10.16268 0,-0.80497 0.25384,-1.40869 0.50768,-1.40869 0.3046,0 11.11814,4.52795 24.06391,10.11235 l 23.55625,10.11235 0.20307,3.82348 c 0.25383,3.77333 2.23378,10.66575 3.4522,11.87319 1.47227,1.45902 4.4168,-3.92415 4.92448,-9.10607 0.1523,-1.45901 0.35538,-2.66645 0.4569,-2.66645 0.91383,0 100.87555,43.36726 103.51548,44.8766 4.97523,2.91795 7.00595,4.47755 21.27169,16.40105 7.00595,5.83598 12.89501,10.51474 13.09808,10.36384 0.20307,-0.15091 0.40614,-3.27018 0.40614,-6.94275 l 0,-6.69126 -11.11814,-17.55816 z m 9.39204,28.97852 c -0.10149,0 -5.73676,-4.67876 -12.53965,-10.36383 -12.94577,-10.81665 -17.3118,-14.08682 -22.69319,-16.75328 -2.53838,-1.25769 -3.14759,-1.81116 -2.89376,-2.46513 1.31997,-3.1696 1.92918,-5.13168 1.77687,-5.28258 -0.60921,-0.50315 -54.67687,-23.4948 -55.23532,-23.4948 -0.35537,0 -1.26918,1.30802 -2.0307,2.91794 l -1.37074,2.8677 -0.25383,-5.78564 -0.25384,-5.73539 -13.70729,-6.23836 c -7.51364,-3.4211 -13.85961,-6.33912 -14.06267,-6.54036 -0.20308,-0.20125 0.4569,-2.11299 1.42149,-4.27638 1.01535,-2.16332 1.7261,-4.02481 1.57381,-4.17572 -0.30462,-0.35215 -118.64427,-54.03298 -119.05041,-54.03298 -0.20307,0 -0.96458,1.30806 -1.7261,2.91799 l -1.31997,2.86767 -0.0507,-4.12544 -0.0507,-4.17572 -13.70731,0 -13.70729,0 0,-2.01241 0,-2.0124 -36.80663,0 -36.80662,0 0,5.28254 0,5.28256 -3.04606,0 -3.04607,0 0,-70.23282 0,-70.18252 5.07677,3.42108 c 2.74146,1.86147 5.02601,3.62232 5.07678,3.82356 0,0.25154 -0.55845,1.15714 -1.21842,2.0124 -0.65999,0.90558 -1.57381,2.21363 -2.03073,2.91798 l -0.81227,1.30806 150.27258,104.5946 c 82.6499,57.50439 150.62793,104.64488 150.98331,104.74555 0.45691,0.10061 1.5738,-1.0062 2.63992,-2.66646 1.06612,-1.55958 2.18301,-2.7167 2.48762,-2.56579 1.62457,0.60372 11.42274,7.84839 13.35192,9.86078 1.16766,1.25769 7.05672,9.96136 12.99656,19.36933 l 10.86429,17.10543 0.0507,5.93663 c 0.0507,3.21985 -0.0507,5.88621 -0.15229,5.88621 z M 748.5837,799.93495 c -0.50768,1.20743 -1.11689,2.06273 -1.42149,1.96215 -8.12286,-3.42109 -52.03696,-22.38802 -52.59539,-22.74017 -0.71076,-0.40247 -0.71076,-0.70438 0.25381,-2.81737 l 1.06614,-2.3143 25.13004,10.76641 c 13.80883,5.98687 25.89155,11.1688 26.80538,11.52094 1.87841,0.80497 1.87841,0.85529 0.76151,3.62234 z m -3.50297,-23.14257 c -0.40615,0.1006 -48.88936,-33.35557 -50.41239,-34.81458 -0.55844,-0.5534 -0.40614,-1.00621 0.91383,-2.96828 0.91381,-1.25778 1.82763,-2.3143 2.08147,-2.3143 0.25383,0 11.93043,7.94903 25.89156,17.65881 l 25.38388,17.70916 -1.7261,2.31431 c -0.9646,1.25768 -1.92918,2.31422 -2.13225,2.41488 z m -50.5647,-38.286 c -0.86304,1.20744 -1.67533,2.21364 -1.7261,2.21364 -0.20306,0 -50.10778,-34.71392 -50.66622,-35.26733 -0.40614,-0.35217 0.25384,-1.55962 3.04606,-5.38317 0.20307,-0.35218 50.97083,35.21701 50.97083,35.72016 0,0.25156 -0.71074,1.50925 -1.62457,2.7167 z m -4.11219,38.93996 c -0.0507,0 -32.79596,-14.03649 -72.69941,-31.14192 l -72.59791,-31.1922 -0.15231,-6.54031 c -0.0507,-3.62233 0,-6.59062 0.15231,-6.59062 0.15231,0 31.93292,14.38868 70.71948,31.99721 38.73581,17.6085 71.37948,32.44996 72.59791,33.00335 l 2.13224,0.95596 0,4.7291 c 0,2.61613 -0.0507,4.77943 -0.15231,4.77943 z m -26.2977,-27.16736 c -0.91381,1.96207 -1.77686,3.47134 -1.97993,3.42109 -3.09684,-1.20744 -27.92227,-12.77881 -27.92227,-13.03038 0,-0.1509 0.71075,-1.81117 1.52303,-3.67258 1.26919,-2.76703 1.67534,-3.27017 2.43685,-2.91802 0.45692,0.25157 6.85366,3.11927 14.16421,6.4397 7.36132,3.27017 13.35192,6.0372 13.35192,6.08754 0,0.1006 -0.71075,1.76083 -1.57381,3.67265 z m -15.38262,16.35073 c -0.35538,1.40867 -1.06612,3.27017 -1.5738,4.22604 -0.76152,1.50935 -0.96459,1.60992 -1.37073,0.90563 -1.11689,-2.06274 -2.48763,-6.84218 -2.79223,-10.01178 l -0.30461,-3.42101 1.97995,0.80496 c 5.27985,2.16332 5.43215,2.46514 4.06142,7.49616 z m -9.08743,-62.78694 c -12.4381,-8.5024 -50.10778,-34.91518 -50.10778,-35.21703 0,-0.65404 3.09683,-4.62854 3.65529,-4.62854 0.25383,0 11.87964,7.89868 25.79001,17.60852 l 25.28234,17.55822 -1.82763,2.66642 c -1.62457,2.26396 -1.97995,2.56582 -2.79223,2.01241 z m -6.75212,36.32386 c -0.1523,0.15091 -25.79001,-11.3198 -27.92225,-12.4769 -0.76152,-0.35215 2.183,-7.09372 3.04606,-7.09372 0.35538,0 5.73675,2.36458 12.03195,5.18198 6.24444,2.86761 12.48888,5.68498 13.75807,6.28869 l 2.43684,1.05654 -1.62455,3.42109 c -0.86307,1.86149 -1.67535,3.52166 -1.72612,3.62232 z m -28.42994,-15.89798 c -0.71075,1.30806 -1.37072,2.36454 -1.5738,2.36454 -0.45692,0 -27.21151,-12.12469 -27.71919,-12.57748 -0.40615,-0.35217 2.53838,-7.04341 3.1476,-7.04341 0.20306,0 5.38138,2.26396 11.52427,5.08131 6.09214,2.81737 12.33657,5.63473 13.80884,6.28877 3.04607,1.35837 3.04607,1.40867 0.81228,5.88627 z m -12.64117,18.11162 c -0.40615,1.60992 -1.11689,3.62233 -1.57379,4.47762 l -0.81229,1.60992 -0.76151,-1.35843 c -1.57381,-2.96828 -3.45222,-12.92963 -2.48763,-12.92963 0.1523,0 1.62456,0.60373 3.2999,1.30802 3.55375,1.50934 3.65527,1.91183 2.33532,6.8925 z m -1.77687,-76.82345 c -0.86305,1.20743 -1.7261,2.21364 -1.92918,2.21364 -0.40614,-0.0504 -49.54933,-34.21083 -50.41238,-35.06611 -0.71075,-0.70434 2.33532,-5.33287 3.35067,-5.08132 0.96458,0.25156 50.51392,34.81456 50.51392,35.26735 0,0.25155 -0.71074,1.40868 -1.52303,2.66644 z m -14.82419,44.37346 -1.67534,3.5217 -13.70729,-6.23845 c -7.51362,-3.42107 -13.91036,-6.28875 -14.21497,-6.38937 -0.45691,-0.15092 2.03071,-6.69123 2.79222,-7.14403 0.30461,-0.20124 28.42996,12.27566 28.42996,12.57752 0,0.10061 -0.76152,1.71054 -1.62458,3.67263 z M 554.44779,572.43292 c -0.25385,3.87387 -0.86306,9.25704 -1.21843,11.92348 -1.2692,8.40178 -4.16296,20.97929 -4.2645,18.66503 -0.0507,-1.05653 -1.06612,-0.75466 -1.52302,0.45278 l -0.40614,1.15714 -0.35538,-1.15714 c -0.50768,-1.60992 -1.72611,-1.35837 -2.48761,0.5031 l -0.65999,1.60992 -0.96459,-1.60992 c -1.26919,-2.11302 -2.53838,-2.06271 -3.70605,0.20124 l -0.96459,1.86147 -1.06611,-1.5093 c -1.06613,-1.45899 -1.1169,-2.36457 -1.62457,-19.06751 -0.50768,-17.5582 -0.86305,-21.73394 -2.33532,-27.87176 -1.01537,-4.12542 -1.92918,-5.53411 -3.50298,-5.53411 -1.7261,0 -2.58916,1.50929 -3.7568,6.54031 -1.42151,5.98689 -1.97995,12.57752 -2.38609,29.43138 -0.35538,14.58991 -0.35538,14.58991 -1.62458,16.25014 l -1.31995,1.71055 -0.91383,-1.81117 c -1.16766,-2.21365 -2.0307,-2.26395 -3.50297,-0.25154 l -1.11689,1.55961 -0.65999,-1.55961 c -0.7615,-1.86149 -1.87839,-2.01241 -2.63993,-0.40249 l -0.55843,1.10683 0,-1.10683 c -0.0507,-0.75466 -0.35538,-1.15713 -1.01536,-1.15713 -0.76151,0 -1.16765,-1.10683 -2.48761,-7.64713 -2.89377,-13.78495 -3.35069,-18.86626 -3.2999,-33.85867 0.0507,-8.30116 0.3046,-15.44519 0.7615,-18.36316 l 0.65999,-4.77945 23.70854,-0.15094 c 22.23628,-0.1006 23.70855,-0.0504 23.96238,0.75466 0.25385,0.95588 1.21843,10.41418 1.47227,14.48929 0.40614,6.0372 0.3046,13.08062 -0.20307,19.62093 z m -48.58475,-36.67605 c -0.50768,-0.55339 2.28454,-5.13162 3.45221,-5.73533 0.96459,-0.4528 5.93982,-0.55342 20.66248,-0.5031 18.93638,0.15092 19.44405,0.20123 20.45941,1.20744 0.60921,0.5534 1.37073,1.91178 1.77687,3.0186 l 0.65997,1.96209 -23.35316,0.15093 c -12.89501,0.0504 -23.50548,0 -23.65778,-0.1006 z m 24.77467,178.80194 -13.19963,0 0,-11.82287 0,-11.82286 13.19963,0 13.19963,0 0,11.82286 0,11.82287 -13.19963,0 z m 7.05672,-85.37616 c -0.86305,1.15712 -1.72612,2.11302 -1.87841,2.11302 -0.20306,0 -5.12754,-3.27015 -10.86431,-7.29495 l -10.55968,-7.29497 0,-3.97449 c 0,-3.06891 0.15229,-3.82356 0.65997,-3.47139 0.30461,0.30185 5.93983,4.17574 12.4381,8.70365 6.44751,4.47759 11.77813,8.35146 11.77813,8.603 0,0.25155 -0.71075,1.40869 -1.5738,2.61613 z m -4.11219,-8.50241 c -0.35537,-0.25154 -2.53839,-1.76084 -4.82294,-3.37076 l -4.21373,-2.96829 0,-17.65884 c 0,-18.86626 0.50768,-29.17982 1.82764,-36.02199 0.9646,-5.18194 1.92918,-7.59682 2.9953,-7.59682 1.01536,0 1.62457,1.66024 2.843,7.39558 1.4215,6.69123 1.82764,15.29426 1.92918,39.29215 0.0507,16.90418 -0.10149,21.23084 -0.55845,20.92897 z m -10.81354,424.26466 -4.5691,-1.6601 -0.25384,-3.9243 -0.25383,-3.9241 -50.00625,-26.111 c -27.51612,-14.33836 -50.05701,-26.26187 -50.15854,-26.51336 -0.0507,-0.25158 1.37073,-7.09375 3.1476,-15.24394 1.82763,-8.15028 3.90912,-17.80982 4.67064,-21.43214 0.7615,-3.67257 1.52302,-6.69118 1.72609,-6.69118 0.15232,0 0.55845,0.75462 0.91382,1.66025 0.3046,0.90555 1.92918,2.86761 3.50298,4.42721 1.62456,1.55968 22.38859,19.97312 46.09713,40.95246 23.75931,20.9793 43.66027,38.8393 44.32025,39.745 1.16766,1.6099 6.34597,19.973 5.68599,20.2749 -0.15231,0.05 -2.33532,-0.654 -4.82294,-1.5597 z m -23.86083,-349.00082 -17.51488,0 0,-4.77945 0,-4.77945 17.51488,0 17.51486,0 0,4.77945 0,4.77945 -17.51486,0 z m -21.83015,12.57752 -39.34501,0 0,-5.5341 0,-5.53412 39.34501,0 39.34501,0 0,5.53412 0,5.5341 -39.34501,0 z m 0,6.03721 -39.34501,0 0,-2.26396 0,-2.26395 39.34501,0 39.34501,0 0,2.26395 0,2.26396 -39.34501,0 z m 37.72045,10.91728 c -0.65999,1.60991 -1.42151,2.86769 -1.67534,2.81736 -0.76152,-0.10061 -2.6907,-6.08752 -3.09684,-9.40798 l -0.35537,-2.81736 3.45221,0 3.45221,0 -0.30462,3.27015 c -0.15229,1.76086 -0.86304,4.52791 -1.47225,6.13783 z m 1.01536,316.95341 c -0.35538,-0.1006 -23.70855,-8.5528 -51.93542,-18.7154 -28.17611,-10.1626 -51.37698,-18.6147 -51.47852,-18.665 -0.20307,-0.2013 3.85835,-18.26258 4.46756,-19.8725 0.25385,-0.7044 9.39204,3.8738 49.95548,25.0544 l 49.6001,25.9097 0,3.2702 c 0,2.4148 -0.15231,3.2198 -0.6092,3.0186 z m -3.09684,-427.13242 c -0.30461,-0.10061 -15.63648,-10.66573 -33.96363,-23.44448 l -33.35443,-23.24325 1.77688,-2.4652 c 1.01535,-1.40868 1.92916,-2.51549 2.08148,-2.51549 0.10149,0 14.57034,10.01169 32.18675,22.23704 l 31.93292,22.23704 0,3.72293 c 0,2.76707 -0.15229,3.67264 -0.65997,3.47141 z m -49.85393,80.647 -17.51488,0 0,-4.77945 0,-4.77945 17.51488,0 17.51486,0 0,4.77945 0,4.77945 -17.51486,0 z m -30.71451,-199.2278 c -3.95989,0 -4.61986,0.1006 -5.07678,0.95589 -0.25384,0.55341 -0.50768,4.22604 -0.50768,8.30116 0,9.25705 0.0507,9.35766 6.09214,9.35766 l 4.06142,0 0,102.38096 0,102.38097 -4.5691,0 c -3.95989,0 -4.61986,0.10061 -5.07678,0.95589 -0.25384,0.55341 -0.50768,4.27635 -0.50768,8.55274 0,9.3073 -0.10149,9.10606 5.88907,9.10606 l 4.26449,0 0,59.7684 c 0,32.85244 -0.15231,61.93162 -0.35537,64.64841 l -0.30461,4.88002 -4.21372,0 c -3.50297,0 -4.31526,0.151 -4.67065,0.90563 -0.25383,0.45281 -0.60921,4.27638 -0.81227,8.45209 -0.20308,5.98688 -0.15231,7.74771 0.35537,8.20052 0.40615,0.30182 2.33531,0.70431 4.31526,0.8553 3.55373,0.35215 3.60452,0.35215 3.40144,1.66017 -0.15231,0.70439 -0.60921,4.0248 -1.01535,7.34531 -2.53839,19.26875 -9.08743,51.46721 -20.66249,101.52566 l -5.22908,22.48858 -1.87841,0 c -1.42149,0 -1.92916,-0.2012 -1.92916,-0.8049 0,-0.9056 1.82763,-21.88493 2.28455,-26.11089 0.65997,-6.03721 0.86304,-72.2453 0.30461,-83.01161 -0.9646,-17.70917 -3.04608,-35.72014 -4.72142,-40.75114 -0.91381,-2.71679 -2.23378,-2.91804 -3.19836,-0.50314 -1.2692,2.91802 -3.09682,16.19979 -4.31526,30.94068 -1.8784,22.89108 -1.47226,80.94888 0.76152,105.5505 0.71074,7.6472 1.26919,14.0366 1.26919,14.288 0,0.2013 -0.86306,0.4025 -1.92918,0.4025 l -1.97993,0 -4.61987,-19.97301 c -11.9812,-51.66848 -19.03792,-86.3824 -21.424,-105.299 -0.25383,-2.36456 -0.60922,-4.98068 -0.76151,-5.83597 l -0.25384,-1.55959 3.65528,-0.35215 c 2.0307,-0.20125 3.95988,-0.60372 4.31525,-0.95595 0.76152,-0.80497 0.15231,-16.14949 -0.71074,-17.00478 -0.35538,-0.35214 -2.13225,-0.55339 -4.61986,-0.50305 l -4.01067,0.1006 -0.3046,-3.42108 c -0.20307,-1.8615 -0.35538,-30.99102 -0.35538,-64.64841 l 0,-61.27766 4.21373,0 c 2.28455,0 4.46757,-0.20124 4.82294,-0.40247 0.45691,-0.35216 0.60921,-2.51547 0.50767,-9.20673 l -0.15229,-8.75394 -4.67065,-0.15093 -4.7214,-0.15094 0,-102.33065 0,-102.38096 3.9599,0 c 5.93983,0 5.73675,0.35217 5.58444,-9.81045 l -0.15229,-8.55271 -4.7214,-0.15094 -4.77218,-0.15092 0.25384,-41.35486 c 0.20307,-31.94688 0.4569,-43.0654 1.06612,-48.90136 0.40615,-4.12544 0.76152,-7.94899 0.81229,-8.4521 0,-0.80496 0.35538,-0.90559 3.45222,-0.60372 2.6399,0.30185 3.55373,0.20125 4.01064,-0.35217 0.91382,-1.0565 2.53839,-16.35077 1.82764,-17.05512 -0.35537,-0.35215 -1.77688,-0.70434 -3.19838,-0.85526 -1.42149,-0.10061 -2.69069,-0.40249 -2.84298,-0.65403 -0.35538,-0.60372 3.40144,-15.69674 5.63522,-22.58922 5.48292,-16.75325 12.89501,-30.78975 20.71324,-39.04059 2.79224,-2.96829 3.14761,-3.21985 5.17832,-3.21985 2.08147,0 2.38608,0.20124 5.33061,3.42109 10.30585,11.06821 19.39328,31.14192 24.92696,54.88826 0.76152,3.42109 1.31997,6.4397 1.16768,6.69124 -0.15232,0.20124 -1.01537,0.40248 -1.97995,0.40248 -0.9646,0 -2.28456,0.20124 -2.9953,0.50309 -1.06612,0.40249 -1.31997,0.80498 -1.31997,2.31427 0,3.42108 1.57381,14.48929 2.18303,15.19364 0.45689,0.55342 1.37072,0.65402 4.01065,0.35217 3.14759,-0.30187 3.45219,-0.25155 3.45219,0.65404 0,0.50309 0.25386,3.27014 0.50769,6.18814 1.06612,10.21293 1.37072,22.79044 1.42149,57.45407 l 0.10149,35.06609 -4.5691,0 z m 0.25385,17.10542 -4.31527,0 0,-8.04962 0,-8.04961 4.31527,0 4.31525,0 0,8.04961 0,8.04962 -4.31525,0 z m 0,223.37666 -4.31527,0 0,-7.79804 0,-7.7981 4.31527,0 4.31525,0 0,7.7981 0,7.79804 -4.31525,0 z m 3.04605,140.61662 c -0.1523,2.21356 -0.45691,4.77944 -0.60921,5.68496 l -0.25385,1.60993 -3.50296,0 -3.50299,0 0,-4.17572 c 0,-2.3143 0.15232,-5.93654 0.30462,-8.04961 l 0.35538,-3.8739 2.84299,0 c 4.7214,0 5.22908,0.3019 4.92447,2.71678 -0.1523,1.10678 -0.40614,3.87391 -0.55845,6.08756 z M 431.1329,396.1968 c -1.52304,0.20124 -2.94454,0.20124 -3.09684,0 -0.35538,-0.40248 -2.13224,-15.19364 -1.87841,-15.4955 0.10149,-0.1006 1.47227,-0.30185 2.9953,-0.5031 l 2.79224,-0.30186 1.06612,6.43969 c 0.60921,3.57202 1.06611,7.19433 1.01535,7.99929 -0.10149,1.459 -0.25384,1.50932 -2.89376,1.86148 z m -28.68379,643.3146 c -0.60921,0.5534 -0.55844,-0.7043 0.15231,-9.3576 l 0.81229,-9.2067 1.87839,0 1.82765,0 -2.23378,9.1564 c -1.21844,5.031 -2.33532,9.257 -2.43686,9.4079 z m 2.79223,-65.30236 c -0.35537,14.38864 -0.91382,23.44446 -2.53838,41.10326 -1.11691,12.4769 -2.03072,23.042 -2.03072,23.4948 0,0.4025 -0.35537,0.7547 -0.76151,0.7547 -0.40615,0 -0.76153,-0.1509 -0.76153,-0.3522 0,-0.2516 -0.91382,-10.5652 -2.03071,-23.042 -2.69068,-29.6829 -2.74145,-30.53819 -2.74145,-70.43413 -0.0507,-34.26111 0.20306,-42.10948 1.97993,-57.85656 1.06614,-9.50855 2.63993,-18.86627 3.2999,-19.52024 1.62458,-1.71058 5.07679,27.26803 5.73677,48.95167 0.35537,11.1688 0.30462,40.34865 -0.1523,56.9007 z m -7.61517,65.35276 c -0.25383,0 -0.6092,-0.5031 -0.76152,-1.1068 -0.15229,-0.6541 -1.16765,-4.7795 -2.23378,-9.2067 l -1.92917,-8.0497 1.47226,-0.151 c 0.86305,-0.1006 1.67534,-0.05 1.82765,0.151 0.20307,0.2013 0.71075,4.226 1.16765,8.9552 0.45691,4.7794 0.86305,8.8042 0.91383,9.0558 0,0.2013 -0.15231,0.3522 -0.45692,0.3522 z m -62.2413,-15.6968 c -28.63299,10.3639 -52.13844,18.7154 -52.23999,18.6148 -0.0511,-0.05 0,-1.5597 0.20308,-3.3205 l 0.30455,-3.1695 49.49862,-25.8594 c 27.2115,-14.18749 49.60008,-25.60786 49.70162,-25.30595 0.35538,1.05644 4.51834,18.76565 4.56911,19.52025 0.0507,0.5535 -13.80884,5.7354 -52.03699,19.5203 z m -3.09678,-14.6402 -50.15858,26.1613 -0.25387,3.9744 -0.25377,3.9243 -4.31525,1.6098 c -2.38615,0.9056 -4.56912,1.6602 -4.87376,1.6602 -0.81228,0.05 3.6553,-17.3065 5.02599,-19.6712 0.66005,-1.1068 20.25635,-18.7656 47.01101,-42.51196 35.89277,-31.74566 46.14786,-41.10329 46.96015,-42.76355 0.60921,-1.15711 1.16766,-2.11307 1.31996,-2.16331 0.15231,0 1.2692,4.67886 2.43686,10.4645 1.21842,5.7353 3.35067,15.19361 4.67063,20.97924 1.31997,5.83598 2.43686,10.91732 2.48761,11.37004 0.0508,0.55348 -14.46881,8.40185 -50.05698,26.96624 z M 372.6992,389.90805 c -0.35538,3.11922 -0.76152,5.83596 -0.91381,6.08751 -0.15231,0.25155 -1.62458,0.35217 -3.19836,0.20124 -2.74147,-0.20124 -2.94455,-0.30186 -2.94455,-1.5093 0,-1.40868 2.03072,-14.33837 2.28455,-14.58992 0.10149,-0.10061 1.47227,0 3.04607,0.15093 l 2.89376,0.40248 -0.3046,1.81117 c -0.15231,1.0062 -0.55844,4.32665 -0.86306,7.44589 z m -4.01065,495.20182 -3.50297,0 -0.25385,-1.60993 c -0.15229,-0.90552 -0.55843,-4.37695 -0.81228,-7.64713 -0.40615,-4.77944 -0.40615,-6.08745 0.10149,-6.43969 0.35538,-0.20123 2.18303,-0.40248 4.06144,-0.40248 l 3.40143,0 0.20308,3.42109 c 0.10149,1.8615 0.20306,5.48382 0.25383,8.04961 l 0.10149,4.62853 -3.55375,0 z m -1.2692,-371.28817 -4.31526,0 0,-8.04962 0,-8.04961 4.31526,0 4.31526,0 0,8.04961 0,8.04962 -4.31526,0 z m 0,223.37666 -4.31526,0 0,-7.79804 0,-7.7981 4.31526,0 4.31526,0 0,7.7981 0,7.79804 -4.31526,0 z m -8.37667,-41.25428 -3.04607,0 0,-5.28256 0,-5.28254 -36.8066,0 -36.80664,0 0,2.0124 0,2.01241 -13.70735,0 -13.70727,0 0,4.17572 -0.0511,4.12544 -1.52302,-2.86767 c -0.81227,-1.60993 -1.57377,-2.91799 -1.72609,-2.91799 -0.35542,0 -118.6443,53.73117 -118.94885,54.03298 -0.15232,0.15091 0.45687,1.81116 1.31991,3.67266 0.86305,1.91174 1.62456,3.7229 1.72611,4.12539 0.10148,0.4528 -4.46757,2.76711 -13.80882,7.04341 l -13.96113,6.33912 -0.25386,5.78563 -0.25378,5.78564 -1.37077,-2.8677 c -0.76151,-1.60992 -1.72611,-2.91794 -2.08151,-2.91794 -0.35533,0 -12.336502,4.98068 -26.551492,11.11856 -14.21499,6.08745 -26.60233,11.42037 -27.51613,11.77252 l -1.6246,0.70429 1.2692,2.8677 c 0.7108,1.55959 1.2692,2.91803 1.2692,2.96828 0,0.1006 -1.9799,1.20743 -4.3661,2.46521 -5.73674,3.01861 -7.05674,4.02482 -21.62704,16.19981 l -12.3366,10.3136 -0.1523,-5.78565 -0.1523,-5.83597 10.7628,-16.95453 c 5.889,-9.35762 11.4735,-17.91039 12.3873,-19.01717 1.4723,-1.81116 12.33664,-9.96136 14.06274,-10.56507 0.4061,-0.10073 1.4722,0.90553 2.5892,2.51545 1.0661,1.50936 2.1323,2.76704 2.4368,2.76704 0.4062,0 299.783662,-208.03204 301.154382,-209.23949 0.20307,-0.20124 -0.55843,-1.66023 -1.67534,-3.16953 -1.11689,-1.5596 -2.0307,-3.01861 -2.0307,-3.27015 0,-0.30186 6.75211,-5.18193 9.49356,-6.84217 0.55846,-0.35217 0.66,12.02411 0.66,69.83036 l 0,70.18251 -3.04607,0 z m -36.29893,12.57752 -39.34501,0 0,-5.5341 0,-5.53412 39.34501,0 39.345,0 0,5.53412 0,5.5341 -39.345,0 z m 0,6.03721 -39.34501,0 0,-2.26396 0,-2.26395 39.34501,0 39.345,0 0,2.26395 0,2.26396 -39.345,0 z m 14.21491,-18.61473 -17.51488,0 0,-4.77945 0,-4.77945 17.51488,0 17.51493,0 0,4.77945 0,4.77945 -17.51493,0 z m -16.4995,-103.68901 c -18.27639,12.72844 -33.40521,23.14262 -33.60822,23.19293 -0.25386,0 -0.40618,-1.66024 -0.40618,-3.67263 l 0,-3.72295 31.72987,-22.0861 c 17.46411,-12.12473 31.98369,-22.08612 32.23752,-22.08612 0.66,0 3.55375,3.92417 3.40144,4.62853 -0.0507,0.30186 -15.07806,11.0179 -33.35443,23.74634 z m -19.54554,103.68901 -17.51488,0 0,-4.77945 0,-4.77945 17.51488,0 17.51488,0 0,4.77945 0,4.77945 -17.51488,0 z m -6.1429,-115.21 c -0.76151,5.98688 -2.63992,16.0992 -3.75684,20.17432 -0.40618,1.35837 -0.7615,1.86146 -1.26923,1.66023 -0.55842,-0.20124 -0.76151,0.0504 -0.76151,0.80496 l 0,1.10683 -1.01537,-1.15713 c -1.01528,-1.20745 -1.01528,-1.20745 -1.77688,-0.25156 -0.40608,0.55341 -0.76149,1.30806 -0.76149,1.66024 0,1.10682 -0.71074,0.70434 -1.62457,-0.85528 -1.11691,-1.91179 -2.18296,-1.91179 -3.19833,0 -0.9646,1.86148 -1.32001,1.86148 -2.63992,0.10061 -1.01538,-1.35837 -1.11692,-2.46519 -1.62456,-19.01721 -0.81228,-24.60161 -2.28461,-32.90276 -5.88912,-32.90276 -1.7261,0 -2.58916,1.50929 -3.75676,6.5403 -1.37078,5.83597 -1.97996,13.33217 -2.38615,29.93448 -0.30455,12.92969 -0.4061,14.23774 -1.37069,15.74705 l -1.01537,1.71055 -1.01536,-1.81117 c -1.31993,-2.26395 -2.58916,-2.31427 -3.70599,-0.15092 l -0.86305,1.6099 -0.71082,-1.6099 c -0.7615,-1.91179 -2.03064,-2.16335 -2.69069,-0.50311 -0.30455,0.80496 -0.45687,0.85526 -0.45687,0.25155 -0.0511,-1.10683 -1.06614,-1.71055 -1.57378,-0.90559 -0.45696,0.75466 -0.50773,0.65404 -1.97998,-5.78565 -3.95984,-17.40728 -5.07675,-37.38037 -2.94455,-54.5864 l 0.60928,-4.77945 23.65777,-0.15094 c 19.64708,-0.1006 23.75932,0 23.96233,0.55341 0.25386,0.60371 0.91382,6.79186 1.57387,14.43898 0.40609,4.67884 -0.2031,22.13643 -1.01537,28.17364 z m -47.82329,-44.97721 c -0.50763,-0.55339 2.2846,-5.13162 3.45221,-5.73533 0.9646,-0.4528 5.93989,-0.55342 20.66252,-0.5031 18.93635,0.15092 19.44407,0.20123 20.45936,1.20744 0.60928,0.5534 1.37077,1.91178 1.77688,3.0186 l 0.66004,1.96209 -23.35323,0.15093 c -12.89498,0.0504 -23.50546,0 -23.65778,-0.1006 z m 42.59421,184.33605 c -0.5585,3.16954 -2.48769,8.55268 -3.04611,8.55268 -0.71072,0 -3.09679,-7.94897 -3.09679,-10.31354 l 0,-2.26395 3.29989,0 c 3.65528,0 3.55375,-0.20123 2.84301,4.02481 z M 275.2251,623.74916 c -5.58449,3.87387 -10.45815,7.19434 -10.81356,7.39557 -0.65997,0.35219 -3.8583,-3.42106 -3.8583,-4.52789 0,-0.40248 20.96708,-15.4452 24.21619,-17.35697 0.50765,-0.30186 0.65997,0.40248 0.65997,3.52171 l -0.0511,3.92417 -10.15352,7.04341 z m -6.04135,90.80965 -13.19962,0 0,-11.82287 0,-11.82286 13.19962,0 13.19962,0 0,11.82286 0,11.82287 -13.19962,0 z m 1.16769,-96.79654 -4.72144,3.27016 0,-20.77807 c 0,-27.11711 0.7615,-37.88346 3.14757,-44.92686 0.81227,-2.46521 2.18306,-2.91799 2.99533,-0.90559 1.16769,2.86767 2.4876,10.76636 2.94456,17.05511 0.20301,3.57202 0.4061,14.74085 0.35533,24.75254 l -0.0511,18.31286 -4.67057,3.21985 z m -33.20221,32.44999 c -13.75803,9.60921 -25.28232,17.45757 -25.5361,17.40727 -0.20309,-0.10061 -1.16769,-1.15714 -2.13228,-2.46519 l -1.77687,-2.31426 25.38387,-17.65884 c 13.96113,-9.70983 25.58698,-17.65882 25.8916,-17.65882 0.60919,0 3.60444,4.12542 3.45221,4.72914 -0.10149,0.25154 -11.47352,8.35147 -25.28243,17.9607 z m 13.14886,66.76143 c -4.72135,2.06272 -139.15443,59.81869 -140.42358,60.32174 -0.50772,0.20125 -0.60927,-0.80496 -0.50772,-4.62852 l 0.15232,-4.8801 72.34411,-32.90276 c 39.80188,-18.06129 72.49634,-32.85244 72.75021,-32.90276 0.203,0 0.35532,2.91798 0.35532,6.48999 l 0,6.49002 -4.67066,2.01239 z m -9.95043,-9.86078 -14.06267,6.33907 -1.67532,-3.5217 c -0.91383,-1.91179 -1.62457,-3.62233 -1.47225,-3.72295 0.25378,-0.25154 27.76995,-12.77874 28.0745,-12.77874 0.25385,0 3.14764,6.13782 3.19842,6.79185 0,0.30187 -6.29522,3.37077 -14.06268,6.89247 z m -29.64836,13.38248 c -7.41213,3.37078 -13.70735,6.1378 -13.96112,6.1378 -0.71083,-0.0502 -3.40144,-6.54027 -2.8938,-7.04338 0.50765,-0.45279 27.05921,-12.57751 27.61763,-12.57751 0.55849,0 3.55374,6.74154 3.14766,7.09372 -0.2031,0.15094 -6.44755,3.06891 -13.91037,6.38937 z m 2.63993,18.96686 c -0.25387,1.66025 -0.96459,4.32671 -1.62455,5.98697 -1.01538,2.7167 -1.1677,2.86761 -1.77687,2.0124 -0.96461,-1.30811 -2.6907,-7.04342 -2.6907,-9.00557 0,-1.50927 0.203,-1.7105 2.99523,-2.96828 1.62457,-0.70429 3.09689,-1.30802 3.29989,-1.30802 0.45696,0 0.35541,1.81116 -0.203,5.2825 z m -28.37921,-52.87583 c -13.96114,9.65953 -25.43466,17.5582 -25.58698,17.60851 -0.5584,0.1006 -3.90906,-4.93038 -3.50297,-5.28256 1.11691,-0.95588 49.95548,-34.76423 50.56476,-34.96548 0.40609,-0.15093 1.26915,0.70435 2.23374,2.16333 0.91382,1.30807 1.62455,2.51552 1.57377,2.66644 0,0.15093 -11.37197,8.15023 -25.28232,17.80976 z m -3.75685,47.34176 c -7.76746,3.52166 -14.2149,6.28879 -14.31645,6.18812 -0.10149,-0.10061 -0.91383,-1.7105 -1.7261,-3.57199 l -1.57386,-3.42109 2.69068,-1.20744 c 1.42156,-0.60372 7.66601,-3.42109 13.75814,-6.23846 6.14289,-2.81736 11.42275,-5.08131 11.72729,-5.08131 0.40619,0 3.85839,6.48999 3.60452,6.84214 -0.0511,0.0502 -6.39667,2.96836 -14.16422,6.49003 z m -29.64836,13.48311 -14.11345,6.38936 -1.7261,-3.57199 c -0.91382,-1.91183 -1.62456,-3.57201 -1.523,-3.67267 0.35531,-0.30181 27.0592,-12.32591 27.71916,-12.4769 0.5585,-0.15091 3.55375,5.13167 3.6553,6.38935 0.0511,0.30191 -6.29523,3.4211 -14.01191,6.94285 z m -19.13943,-24.29976 c -13.91036,9.65954 -25.38389,17.60849 -25.48542,17.60849 -0.10162,0 -0.9646,-1.1571 -1.92919,-2.56579 l -1.77689,-2.61613 25.68853,-17.86006 c 19.49484,-13.58372 25.79006,-17.70914 26.09461,-17.15573 0.20309,0.40247 0.9646,1.5093 1.67532,2.46519 0.71083,0.95589 1.21847,1.91177 1.16769,2.11302 -0.0511,0.20124 -11.52429,8.30116 -25.43465,18.01101 z m 22.99782,45.02752 c -1.06615,3.32042 -1.77687,4.67876 -2.23383,4.17571 -0.76151,-0.75463 -2.79224,-7.39556 -2.79224,-9.20673 0,-1.96215 0.0511,-2.01239 2.79224,-3.11926 1.57387,-0.65397 3.0461,-1.15711 3.35065,-1.15711 0.76151,0 0.10149,5.43349 -1.11682,9.30739 z m -75.136282,-8.75401 c -13.75812,9.60921 -25.2823,17.45759 -25.587,17.35701 -0.2538,-0.0502 -1.2692,-1.15711 -2.183,-2.41488 l -1.6754,-2.31432 25.4347,-17.70906 c 14.0119,-9.70987 25.637752,-17.60857 25.891622,-17.50792 0.65995,0.25149 3.50297,4.12539 3.35065,4.62853 -0.0511,0.25149 -11.422752,8.35144 -25.231572,17.96064 z m -1.47232,31.2426 -26.65308,11.42037 -1.0661,-2.36455 c -0.6092,-1.30811 -1.0154,-2.41489 -0.9646,-2.51556 0.2539,-0.30181 52.849292,-22.74016 53.356932,-22.74016 0.66005,0 2.23383,3.0186 2.08151,4.02481 -0.0511,0.45282 -10.204382,5.03101 -26.754662,12.17509 z" />
  </g>
</svg>
